<svg width="46" height="45" fill="none" xmlns="http://www.w3.org/2000/svg"><circle cx="23" cy="22.5" r="21.5" fill="#fff" stroke="#F13C6E" stroke-width="2"/><g clip-path="url(#a)" fill="#F13C6E"><path d="M26.625 12h-8.25a6.876 6.876 0 0 0-6.875 6.875v8.25A6.876 6.876 0 0 0 18.375 34h8.25a6.876 6.876 0 0 0 6.875-6.875v-8.25A6.876 6.876 0 0 0 26.625 12Zm4.813 15.125a4.818 4.818 0 0 1-4.813 4.813h-8.25a4.818 4.818 0 0 1-4.813-4.813v-8.25a4.818 4.818 0 0 1 4.813-4.813h8.25a4.818 4.818 0 0 1 4.813 4.813v8.25Z"/><path d="M22.5 17.5a5.5 5.5 0 1 0 0 11 5.5 5.5 0 0 0 0-11Zm0 8.938A3.442 3.442 0 0 1 19.062 23a3.441 3.441 0 0 1 3.438-3.438A3.441 3.441 0 0 1 25.938 23a3.442 3.442 0 0 1-3.438 3.438ZM28.413 17.82a.733.733 0 1 0 0-1.465.733.733 0 0 0 0 1.465Z"/></g><defs><clipPath id="a"><path fill="#fff" transform="translate(11.5 12)" d="M0 0h22v22H0z"/></clipPath></defs></svg>