<svg width="46" height="45" fill="none" xmlns="http://www.w3.org/2000/svg"><circle cx="23" cy="22.5" r="21.5" fill="#fff" stroke="#F13C6E" stroke-width="2"/><path d="M36.395 29.45a1.94 1.94 0 0 0-.095-.183c-.487-.876-1.417-1.952-2.79-3.227l-.028-.029-.015-.014-.014-.015h-.015c-.623-.594-1.017-.993-1.183-1.197-.302-.39-.37-.784-.204-1.183.116-.302.555-.94 1.314-1.913.399-.516.715-.93.949-1.24 1.684-2.24 2.414-3.67 2.19-4.294l-.087-.145c-.059-.088-.21-.168-.452-.241-.244-.073-.555-.085-.935-.037l-4.205.03a.545.545 0 0 0-.292.007l-.19.044-.073.036-.058.044a.649.649 0 0 0-.161.153 1.002 1.002 0 0 0-.146.256 23.864 23.864 0 0 1-1.562 3.285c-.36.604-.691 1.127-.993 1.57-.302.442-.555.769-.76.978-.204.21-.389.377-.554.503-.166.127-.292.18-.38.161a10.97 10.97 0 0 1-.248-.058.971.971 0 0 1-.329-.358 1.6 1.6 0 0 1-.168-.57 6.26 6.26 0 0 1-.05-.59c-.005-.166-.003-.4.007-.702.01-.302.014-.506.014-.613 0-.37.008-.771.022-1.205l.037-1.029c.01-.253.014-.52.014-.803a3.37 3.37 0 0 0-.05-.664 2.267 2.267 0 0 0-.154-.468.788.788 0 0 0-.3-.35 1.689 1.689 0 0 0-.488-.197c-.516-.117-1.173-.18-1.972-.19-1.81-.02-2.973.098-3.49.35-.204.108-.389.254-.554.438-.175.215-.2.332-.073.35.584.088.998.298 1.24.629l.089.175c.068.127.136.35.204.672.068.32.112.676.131 1.065.049.711.049 1.32 0 1.825-.048.507-.094.9-.138 1.183-.044.282-.11.511-.197.686a2.895 2.895 0 0 1-.176.322.251.251 0 0 1-.073.073 1.093 1.093 0 0 1-.394.073c-.136 0-.302-.069-.496-.205a3.504 3.504 0 0 1-.606-.562 7.53 7.53 0 0 1-.708-1 17.468 17.468 0 0 1-.818-1.519l-.234-.423c-.146-.273-.345-.67-.598-1.19a22.958 22.958 0 0 1-.672-1.511.963.963 0 0 0-.35-.468l-.073-.043a.997.997 0 0 0-.234-.125 1.548 1.548 0 0 0-.336-.095l-4 .03c-.41 0-.687.092-.833.277l-.058.088a.472.472 0 0 0-.044.233c0 .108.03.239.088.395a48.187 48.187 0 0 0 1.905 3.971c.686 1.275 1.282 2.302 1.788 3.08a36.397 36.397 0 0 0 1.548 2.205c.526.692.874 1.134 1.044 1.33.17.194.305.34.402.437l.365.35c.233.234.577.514 1.03.84.452.326.953.647 1.503.964.55.316 1.19.574 1.92.773.73.2 1.44.28 2.132.242h1.68c.34-.03.598-.137.773-.322l.058-.073a.97.97 0 0 0 .11-.27c.034-.121.05-.255.05-.401a4.81 4.81 0 0 1 .095-1.131c.073-.336.156-.59.249-.76a1.867 1.867 0 0 1 .562-.642.958.958 0 0 1 .117-.051c.233-.078.508-.003.825.226.316.23.613.512.89.847.278.336.611.713 1 1.132.39.418.73.73 1.023.934l.292.175c.195.117.448.224.76.322.31.097.583.121.817.073l3.738-.059c.37 0 .657-.06.86-.182.205-.122.327-.256.366-.402.039-.146.041-.311.007-.496a1.833 1.833 0 0 0-.102-.387Z" fill="#F13C6E"/></svg>